<svg version="1.1" xmlns="http://www.w3.org/2000/svg" xmlns:xlink="http://www.w3.org/1999/xlink" width="126.06611" height="32.57744" viewBox="0,0,126.06611,32.57744"><g transform="translate(-237.81309,-163.66939)"><g data-paper-data="{&quot;isPaintingLayer&quot;:true}" fill="#6b6b6b" fill-rule="nonzero" stroke="#000000" stroke-width="5" stroke-linecap="butt" stroke-linejoin="miter" stroke-miterlimit="10" stroke-dasharray="" stroke-dashoffset="0" style="mix-blend-mode: normal"><path d="M240.3131,187.00183l0.01452,-14.13208c0,0 15.01526,5.05525 26.24334,5.06679c7.88985,0.0081 22.23678,-10.35224 36.3244,-11.05482c18.35112,-0.9152 36.02814,6.08929 36.02814,6.08929l-0.01451,14.13208c0,0 -17.03553,-6.89625 -35.39865,-5.8877c-14.08017,0.77332 -29.07927,12.53953 -36.94147,12.53145c-10.81886,-0.01111 -26.25577,-6.74502 -26.25577,-6.74502z"/><path d="M337.18767,190.54064l-0.11714,-20.94606c0,0 7.48435,-3.40293 11.46393,-3.42518c4.07437,-0.02278 12.7046,3.29003 12.7046,3.29003l0.11713,20.94606c0,0 -8.39724,-4.32 -12.49078,-4.29711c-3.95807,0.02213 -11.67774,4.43226 -11.67774,4.43226z"/></g></g></svg>