<svg version="1.1" xmlns="http://www.w3.org/2000/svg" xmlns:xlink="http://www.w3.org/1999/xlink" width="215.5" height="61.5" viewBox="0,0,215.5,61.5"><g transform="translate(-133.25,-149.29167)"><g data-paper-data="{&quot;isPaintingLayer&quot;:true}" fill-rule="nonzero" stroke="#000000" stroke-linecap="butt" stroke-linejoin="miter" stroke-miterlimit="10" stroke-dasharray="" stroke-dashoffset="0" style="mix-blend-mode: normal"><path d="M162,209.62027v-59.24051h156v59.24051z" fill="#47e07d" stroke-width="2"/><path d="M134.25,180.04168c0,-16.43047 13.31953,-29.75 29.75,-29.75c16.43047,0 29.75,13.31953 29.75,29.75c0,16.43047 -13.31953,29.75 -29.75,29.75c-16.43047,0 -29.75,-13.31953 -29.75,-29.75z" fill="#47e07d" stroke-width="2"/><path d="M288.25,180.04168c0,-16.43047 13.31953,-29.75 29.75,-29.75c16.43047,0 29.75,13.31953 29.75,29.75c0,16.43047 -13.31953,29.75 -29.75,29.75c-16.43047,0 -29.75,-13.31953 -29.75,-29.75z" fill="#47e07d" stroke-width="2"/><path d="M163.38319,208.58333v-57.16667h153.23362v57.16667z" fill="#47e07d" stroke-width="0"/><text transform="translate(157.54327,188.16684) scale(0.68057,0.68057)" font-size="40" xml:space="preserve" fill="#ff9d00" fill-rule="nonzero" stroke="#000000" stroke-width="1" stroke-linecap="butt" stroke-linejoin="miter" stroke-miterlimit="10" stroke-dasharray="" stroke-dashoffset="0" font-family="Sans Serif" font-weight="normal" text-anchor="start" style="mix-blend-mode: normal"><tspan x="0" dy="0">Player 2 win!</tspan></text></g></g></svg>