<svg version="1.1" xmlns="http://www.w3.org/2000/svg" xmlns:xlink="http://www.w3.org/1999/xlink" width="220.25339" height="24.11942" viewBox="0,0,220.25339,24.11942"><g transform="translate(-129.45494,-167.94029)"><g data-paper-data="{&quot;isPaintingLayer&quot;:true}" fill-rule="nonzero" stroke-linejoin="miter" stroke-miterlimit="10" stroke-dasharray="" stroke-dashoffset="0" style="mix-blend-mode: normal"><path d="M195.62501,189.26786v-17.89286h153.08333v17.89286z" fill="none" stroke="#000000" stroke-width="2" stroke-linecap="butt"/><path d="M167.94029,180c0,-6.10811 4.9516,-11.05971 11.05971,-11.05971c6.10811,0 11.05971,4.9516 11.05971,11.05971c0,6.10811 -4.9516,11.05971 -11.05971,11.05971c-6.10811,0 -11.05971,-4.9516 -11.05971,-11.05971z" fill="#525252" stroke="#000000" stroke-width="2" stroke-linecap="butt"/><path d="M163.66952,171.08147l-20.56458,0.1501" fill="none" stroke="#000000" stroke-width="2.5" stroke-linecap="round"/><path d="M143.10494,189.03157l20.56458,-0.1501" fill="none" stroke="#000000" stroke-width="2.5" stroke-linecap="round"/><path d="M130.70494,180.23157l32.56458,-0.1501" fill="none" stroke="#000000" stroke-width="2.5" stroke-linecap="round"/><path d="M172.5,176.25c0,-1.87777 1.52223,-3.4 3.4,-3.4c1.87777,0 3.4,1.52223 3.4,3.4c0,1.87777 -1.52223,3.4 -3.4,3.4c-1.87777,0 -3.4,-1.52223 -3.4,-3.4z" fill="#525252" stroke="#000000" stroke-width="0" stroke-linecap="butt"/><path d="M172.3,176.65c0,-1.87777 1.52223,-3.4 3.4,-3.4c1.87777,0 3.4,1.52223 3.4,3.4c0,1.87777 -1.52223,3.4 -3.4,3.4c-1.87777,0 -3.4,-1.52223 -3.4,-3.4z" fill="#868686" stroke="none" stroke-width="none" stroke-linecap="butt"/></g></g></svg>